<svg width="121" height="22" viewBox="0 0 121 22" fill="none" xmlns="http://www.w3.org/2000/svg">
<g clip-path="url(#clip0_20:755)">
<path d="M64.7161 12.6188L69.3555 6.66624C69.4097 6.59342 69.6083 6.32037 69.6083 6.32037L69.8609 5.97449H67.4238L67.3516 6.06552C67.3516 6.06552 67.3156 6.12013 67.2976 6.13832L63.2178 11.2354L59.2463 6.13832L59.1199 5.97449H56.7553L57.0079 6.32037C57.0079 6.32037 57.2065 6.59342 57.2607 6.66624L61.882 12.6734L57.0621 18.8992C57.0079 18.9719 56.7913 19.2449 56.7913 19.2449L56.5024 19.609H58.9755L63.29 14.0569L67.442 19.427L67.5683 19.609H70.1137L64.7161 12.6188Z" fill="#929292"/>
<path d="M120.009 1.00476H117.987V19.9003H120.009V1.00476Z" fill="#929292"/>
<path d="M83.9416 19.5546L83.9236 5.90183H81.9378V7.72219C80.6381 6.35691 78.7969 5.50134 76.7751 5.50134C72.8216 5.50134 69.6265 8.7234 69.6265 12.71C69.6265 16.6966 72.8216 19.9187 76.7751 19.9187C78.8149 19.9187 80.6561 19.0631 81.9558 17.6796V19.5546H83.9416ZM76.7751 17.9162C73.9228 17.9162 71.6121 15.5862 71.6121 12.71C71.6121 9.83382 73.9228 7.50375 76.7751 7.50375C79.6272 7.50375 81.9378 9.83382 81.9378 12.71C81.9198 15.5862 79.6272 17.9162 76.7751 17.9162Z" fill="#929292"/>
<path d="M100.206 19.5546L100.188 0.986816H98.2027V7.72218C96.9029 6.35689 95.0615 5.50132 93.0397 5.50132C89.0863 5.50132 85.8911 8.72338 85.8911 12.71C85.8911 16.6966 89.0863 19.9187 93.0397 19.9187C95.0795 19.9187 96.9209 19.0631 98.2207 17.6796V19.5546H100.206ZM93.0397 17.9162C90.1876 17.9162 87.8769 15.5862 87.8769 12.71C87.8769 9.8338 90.1876 7.50374 93.0397 7.50374C95.892 7.50374 98.2027 9.8338 98.2027 12.71C98.1845 15.5862 95.8738 17.9162 93.0397 17.9162Z" fill="#929292"/>
<path d="M54.8957 13.2197C54.6791 15.8228 52.549 17.9162 49.8954 17.9891C48.1082 18.0437 46.5016 17.1699 45.5449 15.8046L54.6251 11.108L56.4121 10.1797C55.3471 7.4127 52.6393 5.48312 49.5343 5.57413C45.5991 5.68336 42.4941 8.99643 42.6024 12.983C42.7108 16.9696 46.0141 20.1007 49.9496 19.9914C53.903 19.8822 57.0079 16.551 56.8995 12.5825C56.8995 12.4551 56.8815 12.3277 56.8815 12.2003L54.8957 13.2197ZM44.5882 12.9284C44.4978 10.0522 46.7544 7.66755 49.6065 7.57654C51.2131 7.52193 52.6573 8.23188 53.6322 9.3605L44.7144 13.966C44.6422 13.6202 44.6062 13.2743 44.5882 12.9284Z" fill="#929292"/>
<path d="M114.323 13.1467C114.106 15.7498 111.976 17.8432 109.323 17.916C107.535 17.9706 105.929 17.0969 104.972 15.7316L114.052 11.035L115.839 10.1067C114.774 7.3397 112.066 5.41012 108.962 5.50114C105.008 5.61035 101.903 8.94163 102.012 12.91C102.12 16.8966 105.423 20.0276 109.359 19.9184C113.312 19.8093 116.417 16.4779 116.309 12.5095C116.309 12.3821 116.291 12.2547 116.291 12.1273L114.323 13.1467ZM104.033 12.8736C103.943 9.99745 106.2 7.61277 109.052 7.52173C110.658 7.46713 112.102 8.17708 113.077 9.30569L104.16 13.9112C104.087 13.5654 104.033 13.2195 104.033 12.8736Z" fill="#929292"/>
<path d="M35.545 6.79667L32.8329 8.39091C33.1662 8.98876 33.3631 9.6326 33.3934 10.2918C33.3934 10.3531 33.3934 10.3991 33.3934 10.4604C33.3934 11.0429 33.2571 11.6254 33.0146 12.162C31.4995 15.4578 25.7118 17.9258 18.8028 17.9258C17.9694 17.9258 17.1513 17.8952 16.3482 17.8185C13.6665 17.5886 11.2422 16.9754 9.27258 16.1169L32.2419 4.17533C28.8178 2.21317 24.0148 0.986816 18.6815 0.986816C8.36351 0.986816 0 5.55498 0 11.1809C0 13.6183 1.56058 15.8563 4.18176 17.6039C4.40903 17.7572 4.65145 17.9105 4.89386 18.0484C5.1969 18.2324 5.49992 18.401 5.81809 18.5697C6.86352 19.1062 8.01503 19.5815 9.25743 19.9799C9.86348 20.1792 10.4998 20.3479 11.1513 20.5011C11.2726 20.5319 11.3938 20.5625 11.515 20.5931C13.7271 21.099 16.1361 21.3749 18.6815 21.3749C20.6815 21.3749 22.6057 21.2064 24.4087 20.8844C27.939 20.2713 30.9995 19.0908 33.2722 17.5426C33.3177 17.5119 33.3631 17.4813 33.3934 17.4506C34.2267 16.8681 34.9541 16.2396 35.545 15.5651C35.7721 15.3045 35.9692 15.0439 36.1661 14.7833C36.6509 14.0935 36.9995 13.3576 37.1964 12.5912C37.3176 12.1313 37.3782 11.6561 37.3782 11.1809C37.3782 11.0736 37.3782 10.9509 37.3631 10.8436C37.348 10.6597 37.3327 10.4604 37.3024 10.2764C37.2722 10.1078 37.2418 9.93919 37.1964 9.77056C36.9995 9.0041 36.6509 8.26828 36.1661 7.56314C35.9539 7.30253 35.757 7.04193 35.545 6.79667ZM5.81809 13.8789C4.77265 12.8518 4.18176 11.6867 4.18176 10.4451C4.18176 10.3838 4.18176 10.3378 4.18176 10.2764C4.36357 6.22947 10.818 2.96431 18.7724 2.96431C21.6512 2.96431 24.3329 3.39353 26.6056 4.12934V4.14468L5.81809 13.8789Z" fill="#929292"/>
</g>
<defs>
<clipPath id="clip0_20:755">
<rect width="120.12" height="20.3881" fill="white" transform="translate(0 0.986816)"/>
</clipPath>
</defs>
</svg>
