<svg width="72" height="39" viewBox="0 0 72 39" fill="none" xmlns="http://www.w3.org/2000/svg">
<path d="M67.9932 11.1135L62.8053 14.1631C63.4429 15.3068 63.8196 16.5383 63.8774 17.7992C63.8774 17.9165 63.8774 18.0045 63.8774 18.1218C63.8774 19.2361 63.6168 20.3504 63.153 21.3767C60.2547 27.6812 49.1835 32.4022 35.9674 32.4022C34.3733 32.4022 32.8084 32.3436 31.2722 32.197C26.1423 31.7572 21.5051 30.5842 17.7373 28.9421L61.6749 6.09924C55.1249 2.34586 45.9375 0 35.7354 0C15.9984 0 0 8.73834 0 19.5C0 24.1624 2.98521 28.4436 7.99919 31.7865C8.43394 32.0797 8.89765 32.3729 9.36136 32.6368C9.94103 32.9888 10.5207 33.3112 11.1293 33.6339C13.1291 34.6603 15.3318 35.5693 17.7083 36.3314C18.8676 36.7127 20.0849 37.0354 21.3312 37.3285C21.563 37.3874 21.7949 37.4459 22.0267 37.5044C26.2582 38.4722 30.8665 39 35.7354 39C39.5613 39 43.2419 38.6776 46.6908 38.0617C53.444 36.8888 59.2982 34.6307 63.6457 31.6692C63.7328 31.6105 63.8196 31.5519 63.8774 31.4932C65.4716 30.379 66.8629 29.1767 67.9932 27.8865C68.4278 27.388 68.8048 26.8895 69.1814 26.391C70.1087 25.0714 70.7756 23.6639 71.1522 22.1978C71.384 21.3181 71.5 20.409 71.5 19.5C71.5 19.2947 71.5 19.0601 71.4711 18.8549C71.4421 18.503 71.4129 18.1218 71.355 17.7699C71.2972 17.4474 71.239 17.1248 71.1522 16.8022C70.7756 15.3361 70.1087 13.9286 69.1814 12.5797C68.7755 12.0812 68.3988 11.5827 67.9932 11.1135ZM11.1293 24.6609C9.12951 22.6962 7.99919 20.4677 7.99919 18.0925C7.99919 17.9752 7.99919 17.8872 7.99919 17.7699C8.34697 10.0286 20.6936 3.78271 35.9092 3.78271C41.416 3.78271 46.5459 4.60375 50.8934 6.01127V6.04061L11.1293 24.6609Z" fill="white"/>
</svg>
